P1
#fjkldkfdsf
25 25
1111111011011101101111111100000101110001000100000110111010110110010010
1110110111010111001110010111011011101001010011101011101100000101110011
0101000001111111101010101010111111100000000001010101000000001100111000
1110001001011111111010100010111110011010001010111111100100011110010101
1000100001100110011000101011000010000010011111100110100110111100010010
0011101111010011001111100000000001010100101110111011101110111110001111
1110000000000100111111000101001111111000111000101011000100000101111001
0100011111101110101111000011111011010111010010100110110011111011101000
01000111110001010000010111110100001111101111111010011001011000111