P1
25 25
0000000100100010010000000011111010001110111011111001000101001001101101000100100010100011000110100010010001011010110001010001001111101000110010101111100000000101010101010000000111111111101010101111111100110001110001110110100000000101011101000001100101110101000000011011100001101010011101111001100110011101010011110111110110000001100101100100001110110111000100001011001100000111111111101010110100010001000100010000011100000001111111111011000000111010110000000111000111010100111011111010000110101110000001000101000011110000010010100010110101100100110000010001011110111000001110101111101000001011110000010000000101100110100111000
